<svg width="17091" height="5127" viewBox="0 0 17091 5127" fill="none" xmlns="http://www.w3.org/2000/svg">
<path d="M0 5127V0H1106L718.433 2421.08L3929.39 0H4848.2L3929.39 2421.08L1568.82 2474.49L3929.39 2935L5117 5127H4178.64L718.433 2563.5L1106 5127H0Z" fill="#FACC15"/>
<path d="M4695 3904L5514 1384H6040.75L6859.75 3904H6480L5725.75 1604.5H5820.25L5074.75 3904H4695ZM5120.25 3335.25V2992.25H6436.25V3335.25H5120.25ZM8018.85 3956.5C7838.02 3956.5 7674.68 3925.58 7528.85 3863.75C7384.18 3800.75 7264.6 3711.5 7170.1 3596C7076.77 3479.33 7016.1 3341.08 6988.1 3181.25L7369.6 3123.5C7408.1 3277.5 7488.6 3397.67 7611.1 3484C7733.6 3569.17 7876.52 3611.75 8039.85 3611.75C8141.35 3611.75 8234.68 3596 8319.85 3564.5C8405.02 3531.83 8473.27 3485.75 8524.6 3426.25C8577.1 3365.58 8603.35 3293.25 8603.35 3209.25C8603.35 3163.75 8595.18 3123.5 8578.85 3088.5C8563.68 3053.5 8542.1 3023.17 8514.1 2997.5C8487.27 2970.67 8454.02 2947.92 8414.35 2929.25C8375.85 2909.42 8333.27 2892.5 8286.6 2878.5L7640.85 2687.75C7577.85 2669.08 7513.68 2645.17 7448.35 2616C7383.02 2585.67 7322.93 2546.58 7268.1 2498.75C7214.43 2449.75 7170.68 2389.67 7136.85 2318.5C7103.02 2246.17 7086.1 2158.67 7086.1 2056C7086.1 1900.83 7125.77 1769.58 7205.1 1662.25C7285.6 1553.75 7394.1 1472.08 7530.6 1417.25C7667.1 1361.25 7819.93 1333.25 7989.1 1333.25C8159.43 1335.58 8311.68 1365.92 8445.85 1424.25C8581.18 1482.58 8693.18 1566.58 8781.85 1676.25C8871.68 1784.75 8933.52 1916.58 8967.35 2071.75L8575.35 2138.25C8557.85 2043.75 8520.52 1962.67 8463.35 1895C8406.18 1826.17 8336.18 1773.67 8253.35 1737.5C8170.52 1700.17 8080.68 1680.92 7983.85 1679.75C7890.52 1677.42 7804.77 1691.42 7726.6 1721.75C7649.6 1752.08 7587.77 1794.67 7541.1 1849.5C7495.6 1904.33 7472.85 1967.33 7472.85 2038.5C7472.85 2108.5 7493.27 2165.08 7534.1 2208.25C7574.93 2251.42 7625.1 2285.83 7684.6 2311.5C7745.27 2336 7805.35 2356.42 7864.85 2372.75L8330.35 2504C8388.68 2520.33 8454.6 2542.5 8528.1 2570.5C8602.77 2597.33 8674.52 2635.25 8743.35 2684.25C8813.35 2733.25 8871.1 2798.58 8916.6 2880.25C8962.1 2960.75 8984.85 3062.25 8984.85 3184.75C8984.85 3311.92 8959.18 3423.92 8907.85 3520.75C8856.52 3616.42 8785.93 3696.92 8696.1 3762.25C8607.43 3826.42 8504.77 3874.83 8388.1 3907.5C8271.43 3940.17 8148.35 3956.5 8018.85 3956.5ZM9392.79 3904V1384H9758.54V3904H9392.79ZM10284.1 3904V1384H11302.6C11327.1 1384 11357.4 1385.17 11393.6 1387.5C11429.7 1388.67 11464.1 1392.17 11496.8 1398C11636.8 1420.17 11753.5 1468 11846.8 1541.5C11941.3 1615 12011.9 1707.75 12058.6 1819.75C12105.2 1931.75 12128.6 2055.42 12128.6 2190.75C12128.6 2391.42 12077.2 2564.67 11974.6 2710.5C11871.9 2855.17 11717.9 2945.58 11512.6 2981.75L11363.8 2999.25H10649.8V3904H10284.1ZM11757.6 3904L11260.6 2878.5L11629.8 2784L12175.8 3904H11757.6ZM10649.8 2652.75H11288.6C11311.9 2652.75 11337.6 2651.58 11365.6 2649.25C11394.7 2646.92 11422.1 2642.83 11447.8 2637C11522.5 2619.5 11582.6 2587.42 11628.1 2540.75C11673.6 2492.92 11706.2 2438.08 11726.1 2376.25C11745.9 2314.42 11755.8 2252.58 11755.8 2190.75C11755.8 2128.92 11745.9 2067.67 11726.1 2007C11706.2 1945.17 11673.6 1890.92 11628.1 1844.25C11582.6 1796.42 11522.5 1763.75 11447.8 1746.25C11422.1 1739.25 11394.7 1734.58 11365.6 1732.25C11337.6 1729.92 11311.9 1728.75 11288.6 1728.75H10649.8V2652.75ZM12385.4 3904L13204.4 1384H13731.2L14550.2 3904H14170.4L13416.2 1604.5H13510.7L12765.2 3904H12385.4ZM12810.7 3335.25V2992.25H14126.7V3335.25H12810.7ZM14864.1 3904V1384H15235.1L16475.9 3256.5V1384H16846.9V3904H16475.9L15235.1 2029.75V3904H14864.1Z" fill="#FACC15"/>
</svg>
